# xmcd CD database file
#
# Track frame offsets:
#	150
#	17035
#	26955
#	42682
#	55862
#	69965
#	81085
#	93532
#	102980
#	117830
#	130192
#	144500
#	153797
#	164237
#	174732
#	187510
#	197145
#	207742
#	216080
#	224892
#	236812
#	247640
#	259907
#	269600
#
# Disc length: 3756 seconds
#
# Revision: 2
# Processed by: cddbd v1.5.1PL0 Copyright (c) Steve Scherf et al.
# Submitted via: CDex 1.51
#
DISCID=6f0eaa18
DTITLE=Les Paul and Mary Ford - How High the Moon #:4: Warm and Wonderful - Swingin' South!
DYEAR=1900
DGENRE=Jazz
TTITLE0='Deed I Do
TTITLE1=Makin' Whoopee
TTITLE2=A Cottage For Sale
TTITLE3=Clouds
TTITLE4=Come Back To Me
TTITLE5=Chasing Shadows
TTITLE6=It's Been A Long, Long Time
TTITLE7=After You've Gone
TTITLE8=Am I Blue
TTITLE9=You Brought A New Kind Of Love To Me
TTITLE10=Wrap Your Troubles In Dreams
TTITLE11=East Of The Sun
TTITLE12=Worried Man
TTITLE13=Columbus Stockade Blues
TTITLE14=Your Cheatin' Heart
TTITLE15=Cowpokin'
TTITLE16=Trouble In Mind
TTITLE17=Les's Country Blues
TTITLE18=Waitin' So Long
TTITLE19=I Just Don't Understand
TTITLE20=Ham 'N Grits
TTITLE21=Call On Me
TTITLE22=Dance Hall Blues
TTITLE23=The Big City
EXTD=
EXTT0=
EXTT1=
EXTT2=
EXTT3=
EXTT4=
EXTT5=
EXTT6=
EXTT7=
EXTT8=
EXTT9=
EXTT10=
EXTT11=
EXTT12=
EXTT13=
EXTT14=
EXTT15=
EXTT16=
EXTT17=
EXTT18=
EXTT19=
EXTT20=
EXTT21=
EXTT22=
EXTT23=
PLAYORDER=
